<mxfile host="app.diagrams.net" modified="2024-06-18T09:01:15.981Z" agent="Mozilla/5.0 (Windows NT 10.0; Win64; x64) AppleWebKit/537.36 (KHTML, like Gecko) Chrome/125.0.0.0 Safari/537.36 Edg/125.0.0.0" etag="6hC6YGbOF8fx9G13B7Gf" version="24.5.4" type="github">
  <diagram name="Page-1" id="e7e014a7-5840-1c2e-5031-d8a46d1fe8dd">
    <mxGraphModel dx="1083" dy="1140" grid="1" gridSize="10" guides="1" tooltips="1" connect="1" arrows="1" fold="1" page="1" pageScale="1" pageWidth="1169" pageHeight="826" background="none" math="0" shadow="0">
      <root>
        <mxCell id="0" />
        <mxCell id="1" parent="0" />
        <mxCell id="2" value="Admin" style="swimlane;whiteSpace=wrap" parent="1" vertex="1">
          <mxGeometry x="164.5" y="128" width="280" height="570" as="geometry" />
        </mxCell>
        <mxCell id="5" value="" style="ellipse;shape=startState;fillColor=#000000;strokeColor=#000000;" parent="2" vertex="1">
          <mxGeometry x="100" y="40" width="30" height="30" as="geometry" />
        </mxCell>
        <mxCell id="6" value="" style="edgeStyle=elbowEdgeStyle;elbow=horizontal;verticalAlign=bottom;endArrow=open;endSize=8;strokeColor=#000000;endFill=1;rounded=0" parent="2" source="5" target="7" edge="1">
          <mxGeometry x="100" y="40" as="geometry">
            <mxPoint x="115" y="110" as="targetPoint" />
          </mxGeometry>
        </mxCell>
        <mxCell id="7" value="Menuju halaman login admin" style="" parent="2" vertex="1">
          <mxGeometry x="25.5" y="110" width="180" height="50" as="geometry" />
        </mxCell>
        <mxCell id="8" value="Memasukkkan credential&#xa;(username, Password)" style="" parent="2" vertex="1">
          <mxGeometry x="40" y="220" width="150" height="50" as="geometry" />
        </mxCell>
        <mxCell id="9" value="" style="endArrow=open;strokeColor=#000000;endFill=1;rounded=0" parent="2" source="7" target="8" edge="1">
          <mxGeometry relative="1" as="geometry" />
        </mxCell>
        <mxCell id="61nnyF0SAe8KExcpdTgd-51" style="edgeStyle=orthogonalEdgeStyle;rounded=0;orthogonalLoop=1;jettySize=auto;html=1;" edge="1" parent="2" source="61nnyF0SAe8KExcpdTgd-46" target="8">
          <mxGeometry relative="1" as="geometry" />
        </mxCell>
        <mxCell id="61nnyF0SAe8KExcpdTgd-46" value="Mengetahui Login gagal" style="rounded=0;whiteSpace=wrap;html=1;" vertex="1" parent="2">
          <mxGeometry x="55.5" y="312" width="120" height="60" as="geometry" />
        </mxCell>
        <mxCell id="3" value="Sistem" style="swimlane;whiteSpace=wrap" parent="1" vertex="1">
          <mxGeometry x="444.5" y="128" width="280" height="570" as="geometry" />
        </mxCell>
        <mxCell id="16" value="Validasi Credential" style="" parent="3" vertex="1">
          <mxGeometry x="20" y="220" width="110" height="50" as="geometry" />
        </mxCell>
        <mxCell id="61nnyF0SAe8KExcpdTgd-53" style="edgeStyle=orthogonalEdgeStyle;rounded=0;orthogonalLoop=1;jettySize=auto;html=1;entryX=0.5;entryY=0;entryDx=0;entryDy=0;" edge="1" parent="3" source="18" target="61nnyF0SAe8KExcpdTgd-52">
          <mxGeometry relative="1" as="geometry" />
        </mxCell>
        <mxCell id="18" value="Halaman Admin" style="" parent="3" vertex="1">
          <mxGeometry x="145" y="372" width="110" height="50" as="geometry" />
        </mxCell>
        <mxCell id="61nnyF0SAe8KExcpdTgd-49" style="edgeStyle=orthogonalEdgeStyle;rounded=0;orthogonalLoop=1;jettySize=auto;html=1;" edge="1" parent="3" source="21" target="18">
          <mxGeometry relative="1" as="geometry" />
        </mxCell>
        <mxCell id="61nnyF0SAe8KExcpdTgd-50" value="Yes" style="edgeLabel;html=1;align=center;verticalAlign=middle;resizable=0;points=[];" vertex="1" connectable="0" parent="61nnyF0SAe8KExcpdTgd-49">
          <mxGeometry x="-0.2741" y="-1" relative="1" as="geometry">
            <mxPoint as="offset" />
          </mxGeometry>
        </mxCell>
        <mxCell id="21" value="Apakah valid?" style="rhombus;fillColor=#ffffc0;strokeColor=#000000;" parent="3" vertex="1">
          <mxGeometry x="150" y="225" width="100" height="40" as="geometry" />
        </mxCell>
        <mxCell id="24" value="" style="endArrow=open;strokeColor=#000000;endFill=1;rounded=0" parent="3" source="16" edge="1">
          <mxGeometry relative="1" as="geometry">
            <mxPoint x="150.5" y="245" as="targetPoint" />
          </mxGeometry>
        </mxCell>
        <mxCell id="22" value="No" style="edgeStyle=elbowEdgeStyle;elbow=horizontal;align=left;verticalAlign=bottom;endArrow=open;endSize=8;strokeColor=#000000;exitX=1;exitY=0.5;endFill=1;rounded=0;exitDx=0;exitDy=0;entryX=1;entryY=0.5;entryDx=0;entryDy=0;" parent="3" source="21" target="61nnyF0SAe8KExcpdTgd-45" edge="1">
          <mxGeometry x="-1" relative="1" as="geometry">
            <mxPoint x="107" y="358.5000000000001" as="targetPoint" />
            <Array as="points">
              <mxPoint x="266" y="227" />
            </Array>
            <mxPoint x="250" y="260" as="sourcePoint" />
          </mxGeometry>
        </mxCell>
        <mxCell id="61nnyF0SAe8KExcpdTgd-45" value="Notifikasi Error login tidak valid" style="rounded=0;whiteSpace=wrap;html=1;" vertex="1" parent="3">
          <mxGeometry x="20.5" y="312" width="120" height="60" as="geometry" />
        </mxCell>
        <mxCell id="61nnyF0SAe8KExcpdTgd-52" value="" style="shape=sumEllipse;perimeter=ellipsePerimeter;html=1;backgroundOutline=1;" vertex="1" parent="3">
          <mxGeometry x="185" y="492" width="30" height="30" as="geometry" />
        </mxCell>
        <mxCell id="61nnyF0SAe8KExcpdTgd-41" value="Admin masuk kedalam sistem" style="rounded=1;whiteSpace=wrap;html=1;" vertex="1" parent="1">
          <mxGeometry x="350" y="50" width="120" height="60" as="geometry" />
        </mxCell>
        <mxCell id="11" value="" style="endArrow=open;strokeColor=#000000;endFill=1;rounded=0;exitX=1;exitY=0.5;exitDx=0;exitDy=0;entryX=0;entryY=0.5;entryDx=0;entryDy=0;" parent="1" source="8" target="16" edge="1">
          <mxGeometry relative="1" as="geometry">
            <mxPoint x="420" y="420" as="targetPoint" />
            <Array as="points">
              <mxPoint x="420" y="373" />
            </Array>
          </mxGeometry>
        </mxCell>
        <mxCell id="61nnyF0SAe8KExcpdTgd-47" style="edgeStyle=orthogonalEdgeStyle;rounded=0;orthogonalLoop=1;jettySize=auto;html=1;entryX=1;entryY=0.5;entryDx=0;entryDy=0;" edge="1" parent="1" source="61nnyF0SAe8KExcpdTgd-45" target="61nnyF0SAe8KExcpdTgd-46">
          <mxGeometry relative="1" as="geometry" />
        </mxCell>
        <mxCell id="61nnyF0SAe8KExcpdTgd-76" value="Customer" style="swimlane;whiteSpace=wrap" vertex="1" parent="1">
          <mxGeometry x="174.5" y="938" width="280" height="570" as="geometry" />
        </mxCell>
        <mxCell id="61nnyF0SAe8KExcpdTgd-77" value="" style="ellipse;shape=startState;fillColor=#000000;strokeColor=#000000;" vertex="1" parent="61nnyF0SAe8KExcpdTgd-76">
          <mxGeometry x="100" y="40" width="30" height="30" as="geometry" />
        </mxCell>
        <mxCell id="61nnyF0SAe8KExcpdTgd-78" value="" style="edgeStyle=elbowEdgeStyle;elbow=horizontal;verticalAlign=bottom;endArrow=open;endSize=8;strokeColor=#000000;endFill=1;rounded=0" edge="1" parent="61nnyF0SAe8KExcpdTgd-76" source="61nnyF0SAe8KExcpdTgd-77" target="61nnyF0SAe8KExcpdTgd-79">
          <mxGeometry x="100" y="40" as="geometry">
            <mxPoint x="115" y="110" as="targetPoint" />
          </mxGeometry>
        </mxCell>
        <mxCell id="61nnyF0SAe8KExcpdTgd-79" value="Login As Guest" style="" vertex="1" parent="61nnyF0SAe8KExcpdTgd-76">
          <mxGeometry x="25.5" y="110" width="180" height="50" as="geometry" />
        </mxCell>
        <mxCell id="61nnyF0SAe8KExcpdTgd-99" value="Memilih Menu&lt;div&gt;dan memesan&lt;/div&gt;" style="rounded=0;whiteSpace=wrap;html=1;" vertex="1" parent="61nnyF0SAe8KExcpdTgd-76">
          <mxGeometry x="55.5" y="182" width="120" height="60" as="geometry" />
        </mxCell>
        <mxCell id="61nnyF0SAe8KExcpdTgd-84" value="Mesin pemesanan" style="swimlane;whiteSpace=wrap" vertex="1" parent="1">
          <mxGeometry x="454.5" y="938" width="280" height="570" as="geometry" />
        </mxCell>
        <mxCell id="61nnyF0SAe8KExcpdTgd-85" value="Return Halaman Depan" style="" vertex="1" parent="61nnyF0SAe8KExcpdTgd-84">
          <mxGeometry x="95.5" y="110" width="144.5" height="50" as="geometry" />
        </mxCell>
        <mxCell id="61nnyF0SAe8KExcpdTgd-86" style="edgeStyle=orthogonalEdgeStyle;rounded=0;orthogonalLoop=1;jettySize=auto;html=1;entryX=0.5;entryY=0;entryDx=0;entryDy=0;" edge="1" parent="61nnyF0SAe8KExcpdTgd-84" source="61nnyF0SAe8KExcpdTgd-87" target="61nnyF0SAe8KExcpdTgd-94">
          <mxGeometry relative="1" as="geometry" />
        </mxCell>
        <mxCell id="61nnyF0SAe8KExcpdTgd-87" value="Mencetak Struk Pesanan" style="" vertex="1" parent="61nnyF0SAe8KExcpdTgd-84">
          <mxGeometry x="100" y="372" width="155" height="68" as="geometry" />
        </mxCell>
        <mxCell id="61nnyF0SAe8KExcpdTgd-88" style="edgeStyle=orthogonalEdgeStyle;rounded=0;orthogonalLoop=1;jettySize=auto;html=1;" edge="1" parent="61nnyF0SAe8KExcpdTgd-84" source="61nnyF0SAe8KExcpdTgd-90" target="61nnyF0SAe8KExcpdTgd-87">
          <mxGeometry relative="1" as="geometry" />
        </mxCell>
        <mxCell id="61nnyF0SAe8KExcpdTgd-89" value="Yes" style="edgeLabel;html=1;align=center;verticalAlign=middle;resizable=0;points=[];" vertex="1" connectable="0" parent="61nnyF0SAe8KExcpdTgd-88">
          <mxGeometry x="-0.2741" y="-1" relative="1" as="geometry">
            <mxPoint as="offset" />
          </mxGeometry>
        </mxCell>
        <mxCell id="61nnyF0SAe8KExcpdTgd-90" value="Validasi ketersediaan menu" style="rhombus;fillColor=#ffffc0;strokeColor=#000000;" vertex="1" parent="61nnyF0SAe8KExcpdTgd-84">
          <mxGeometry x="100" y="225" width="150" height="40" as="geometry" />
        </mxCell>
        <mxCell id="61nnyF0SAe8KExcpdTgd-91" value="" style="endArrow=open;strokeColor=#000000;endFill=1;rounded=0" edge="1" parent="61nnyF0SAe8KExcpdTgd-84" source="61nnyF0SAe8KExcpdTgd-85">
          <mxGeometry relative="1" as="geometry">
            <mxPoint x="-104.5" y="212" as="targetPoint" />
            <Array as="points">
              <mxPoint x="165.5" y="212" />
            </Array>
          </mxGeometry>
        </mxCell>
        <mxCell id="61nnyF0SAe8KExcpdTgd-92" value="No" style="edgeStyle=elbowEdgeStyle;elbow=horizontal;align=left;verticalAlign=bottom;endArrow=open;endSize=8;strokeColor=#000000;exitX=1;exitY=0.5;endFill=1;rounded=0;exitDx=0;exitDy=0;entryX=1;entryY=0.5;entryDx=0;entryDy=0;" edge="1" parent="61nnyF0SAe8KExcpdTgd-84" source="61nnyF0SAe8KExcpdTgd-90" target="61nnyF0SAe8KExcpdTgd-93">
          <mxGeometry x="-1" relative="1" as="geometry">
            <mxPoint x="107" y="358.5000000000001" as="targetPoint" />
            <Array as="points">
              <mxPoint x="266" y="227" />
            </Array>
            <mxPoint x="250" y="260" as="sourcePoint" />
          </mxGeometry>
        </mxCell>
        <mxCell id="61nnyF0SAe8KExcpdTgd-93" value="Notifikasi Menu X tidak tersedia" style="rounded=0;whiteSpace=wrap;html=1;" vertex="1" parent="61nnyF0SAe8KExcpdTgd-84">
          <mxGeometry x="20.5" y="312" width="120" height="60" as="geometry" />
        </mxCell>
        <mxCell id="61nnyF0SAe8KExcpdTgd-94" value="" style="shape=sumEllipse;perimeter=ellipsePerimeter;html=1;backgroundOutline=1;" vertex="1" parent="61nnyF0SAe8KExcpdTgd-84">
          <mxGeometry x="185" y="492" width="30" height="30" as="geometry" />
        </mxCell>
        <mxCell id="61nnyF0SAe8KExcpdTgd-95" value="Pemesanan&lt;div&gt;&lt;br&gt;&lt;/div&gt;" style="rounded=1;whiteSpace=wrap;html=1;" vertex="1" parent="1">
          <mxGeometry x="360" y="860" width="120" height="60" as="geometry" />
        </mxCell>
        <mxCell id="61nnyF0SAe8KExcpdTgd-97" style="edgeStyle=orthogonalEdgeStyle;rounded=0;orthogonalLoop=1;jettySize=auto;html=1;entryX=0.5;entryY=1;entryDx=0;entryDy=0;" edge="1" parent="1" source="61nnyF0SAe8KExcpdTgd-93" target="61nnyF0SAe8KExcpdTgd-99">
          <mxGeometry relative="1" as="geometry">
            <mxPoint x="350" y="1280" as="targetPoint" />
          </mxGeometry>
        </mxCell>
        <mxCell id="61nnyF0SAe8KExcpdTgd-81" value="" style="endArrow=open;strokeColor=#000000;endFill=1;rounded=0;exitX=1;exitY=0.5;exitDx=0;exitDy=0;entryX=0;entryY=0.5;entryDx=0;entryDy=0;" edge="1" parent="1" source="61nnyF0SAe8KExcpdTgd-79" target="61nnyF0SAe8KExcpdTgd-85">
          <mxGeometry relative="1" as="geometry">
            <mxPoint x="289.61363636363626" y="1158" as="targetPoint" />
          </mxGeometry>
        </mxCell>
        <mxCell id="61nnyF0SAe8KExcpdTgd-100" style="edgeStyle=orthogonalEdgeStyle;rounded=0;orthogonalLoop=1;jettySize=auto;html=1;entryX=0;entryY=1;entryDx=0;entryDy=0;" edge="1" parent="1" source="61nnyF0SAe8KExcpdTgd-99" target="61nnyF0SAe8KExcpdTgd-90">
          <mxGeometry relative="1" as="geometry">
            <Array as="points">
              <mxPoint x="290" y="1190" />
              <mxPoint x="555" y="1190" />
              <mxPoint x="555" y="1193" />
            </Array>
          </mxGeometry>
        </mxCell>
        <mxCell id="61nnyF0SAe8KExcpdTgd-101" value="Customer" style="swimlane;whiteSpace=wrap" vertex="1" parent="1">
          <mxGeometry x="184.5" y="1648" width="280" height="832" as="geometry" />
        </mxCell>
        <mxCell id="61nnyF0SAe8KExcpdTgd-102" value="" style="ellipse;shape=startState;fillColor=#000000;strokeColor=#000000;" vertex="1" parent="61nnyF0SAe8KExcpdTgd-101">
          <mxGeometry x="100" y="40" width="30" height="30" as="geometry" />
        </mxCell>
        <mxCell id="61nnyF0SAe8KExcpdTgd-103" value="" style="edgeStyle=elbowEdgeStyle;elbow=horizontal;verticalAlign=bottom;endArrow=open;endSize=8;strokeColor=#000000;endFill=1;rounded=0" edge="1" parent="61nnyF0SAe8KExcpdTgd-101" source="61nnyF0SAe8KExcpdTgd-102" target="61nnyF0SAe8KExcpdTgd-104">
          <mxGeometry x="100" y="40" as="geometry">
            <mxPoint x="115" y="110" as="targetPoint" />
          </mxGeometry>
        </mxCell>
        <mxCell id="61nnyF0SAe8KExcpdTgd-104" value="Memberikan Struk pemesanan" style="" vertex="1" parent="61nnyF0SAe8KExcpdTgd-101">
          <mxGeometry x="25.5" y="110" width="234.5" height="50" as="geometry" />
        </mxCell>
        <mxCell id="61nnyF0SAe8KExcpdTgd-138" style="edgeStyle=orthogonalEdgeStyle;rounded=0;orthogonalLoop=1;jettySize=auto;html=1;" edge="1" parent="61nnyF0SAe8KExcpdTgd-101" source="61nnyF0SAe8KExcpdTgd-134" target="61nnyF0SAe8KExcpdTgd-137">
          <mxGeometry relative="1" as="geometry" />
        </mxCell>
        <mxCell id="61nnyF0SAe8KExcpdTgd-134" value="Memilih metode &#xa;pembayaran" style="" vertex="1" parent="61nnyF0SAe8KExcpdTgd-101">
          <mxGeometry x="55.5" y="232" width="144.5" height="50" as="geometry" />
        </mxCell>
        <mxCell id="61nnyF0SAe8KExcpdTgd-137" value="Cash or Cashless" style="rhombus;fillColor=#ffffc0;strokeColor=#000000;" vertex="1" parent="61nnyF0SAe8KExcpdTgd-101">
          <mxGeometry x="50" y="332" width="150" height="40" as="geometry" />
        </mxCell>
        <mxCell id="61nnyF0SAe8KExcpdTgd-159" value="Menerima Struk pembayaran dan wireless calling&lt;div&gt;system&lt;/div&gt;" style="rounded=0;whiteSpace=wrap;html=1;" vertex="1" parent="61nnyF0SAe8KExcpdTgd-101">
          <mxGeometry x="80" y="652" width="120" height="60" as="geometry" />
        </mxCell>
        <mxCell id="61nnyF0SAe8KExcpdTgd-106" value="Mesin pemesanan" style="swimlane;whiteSpace=wrap" vertex="1" parent="1">
          <mxGeometry x="464.5" y="1648" width="280" height="832" as="geometry" />
        </mxCell>
        <mxCell id="61nnyF0SAe8KExcpdTgd-152" style="edgeStyle=orthogonalEdgeStyle;rounded=0;orthogonalLoop=1;jettySize=auto;html=1;" edge="1" parent="61nnyF0SAe8KExcpdTgd-106" source="61nnyF0SAe8KExcpdTgd-144" target="61nnyF0SAe8KExcpdTgd-151">
          <mxGeometry relative="1" as="geometry" />
        </mxCell>
        <mxCell id="61nnyF0SAe8KExcpdTgd-144" value="Membuat Struk Pembayaran" style="rounded=0;whiteSpace=wrap;html=1;" vertex="1" parent="61nnyF0SAe8KExcpdTgd-106">
          <mxGeometry x="25.5" y="402" width="120" height="60" as="geometry" />
        </mxCell>
        <mxCell id="61nnyF0SAe8KExcpdTgd-151" value="Menyimpan Histori&lt;div&gt;Pembayaran&lt;/div&gt;" style="rounded=0;whiteSpace=wrap;html=1;" vertex="1" parent="61nnyF0SAe8KExcpdTgd-106">
          <mxGeometry x="25.5" y="542" width="120" height="60" as="geometry" />
        </mxCell>
        <mxCell id="61nnyF0SAe8KExcpdTgd-117" value="&lt;div&gt;Pembayaran&lt;/div&gt;" style="rounded=1;whiteSpace=wrap;html=1;" vertex="1" parent="1">
          <mxGeometry x="370" y="1570" width="120" height="60" as="geometry" />
        </mxCell>
        <mxCell id="61nnyF0SAe8KExcpdTgd-119" value="" style="endArrow=open;strokeColor=#000000;endFill=1;rounded=0;exitX=1;exitY=0.5;exitDx=0;exitDy=0;entryX=0;entryY=0.5;entryDx=0;entryDy=0;" edge="1" parent="1" source="61nnyF0SAe8KExcpdTgd-104" target="61nnyF0SAe8KExcpdTgd-122">
          <mxGeometry relative="1" as="geometry">
            <mxPoint x="575" y="1783" as="targetPoint" />
          </mxGeometry>
        </mxCell>
        <mxCell id="61nnyF0SAe8KExcpdTgd-121" value="Kasir Terpusat" style="swimlane;whiteSpace=wrap" vertex="1" parent="1">
          <mxGeometry x="744.5" y="1648" width="280" height="832" as="geometry" />
        </mxCell>
        <mxCell id="61nnyF0SAe8KExcpdTgd-122" value="Memvalidasi struk &#xa;transaksi pemesanan" style="" vertex="1" parent="61nnyF0SAe8KExcpdTgd-121">
          <mxGeometry x="95.5" y="110" width="144.5" height="50" as="geometry" />
        </mxCell>
        <mxCell id="61nnyF0SAe8KExcpdTgd-128" value="" style="endArrow=open;strokeColor=#000000;endFill=1;rounded=0;entryX=0.5;entryY=0;entryDx=0;entryDy=0;" edge="1" parent="61nnyF0SAe8KExcpdTgd-121" source="61nnyF0SAe8KExcpdTgd-122" target="61nnyF0SAe8KExcpdTgd-132">
          <mxGeometry relative="1" as="geometry">
            <mxPoint x="-104.5" y="212" as="targetPoint" />
            <Array as="points" />
          </mxGeometry>
        </mxCell>
        <mxCell id="61nnyF0SAe8KExcpdTgd-132" value="Menanyakan metode &#xa;pembayaran" style="" vertex="1" parent="61nnyF0SAe8KExcpdTgd-121">
          <mxGeometry x="95.5" y="232" width="144.5" height="50" as="geometry" />
        </mxCell>
        <mxCell id="61nnyF0SAe8KExcpdTgd-149" style="edgeStyle=orthogonalEdgeStyle;rounded=0;orthogonalLoop=1;jettySize=auto;html=1;entryX=0.5;entryY=0;entryDx=0;entryDy=0;" edge="1" parent="61nnyF0SAe8KExcpdTgd-121" source="61nnyF0SAe8KExcpdTgd-141" target="61nnyF0SAe8KExcpdTgd-147">
          <mxGeometry relative="1" as="geometry">
            <Array as="points">
              <mxPoint x="226" y="352" />
              <mxPoint x="226" y="402" />
              <mxPoint x="168" y="402" />
            </Array>
          </mxGeometry>
        </mxCell>
        <mxCell id="61nnyF0SAe8KExcpdTgd-150" value="Ada" style="edgeLabel;html=1;align=center;verticalAlign=middle;resizable=0;points=[];" vertex="1" connectable="0" parent="61nnyF0SAe8KExcpdTgd-149">
          <mxGeometry x="0.1796" relative="1" as="geometry">
            <mxPoint as="offset" />
          </mxGeometry>
        </mxCell>
        <mxCell id="61nnyF0SAe8KExcpdTgd-141" value="kembalian uang?" style="rhombus;fillColor=#ffffc0;strokeColor=#000000;" vertex="1" parent="61nnyF0SAe8KExcpdTgd-121">
          <mxGeometry x="65" y="332" width="150" height="40" as="geometry" />
        </mxCell>
        <mxCell id="61nnyF0SAe8KExcpdTgd-147" value="Kembalian Uang" style="rounded=0;whiteSpace=wrap;html=1;" vertex="1" parent="61nnyF0SAe8KExcpdTgd-121">
          <mxGeometry x="107.75" y="432" width="120" height="60" as="geometry" />
        </mxCell>
        <mxCell id="61nnyF0SAe8KExcpdTgd-158" style="edgeStyle=orthogonalEdgeStyle;rounded=0;orthogonalLoop=1;jettySize=auto;html=1;" edge="1" parent="61nnyF0SAe8KExcpdTgd-121" source="61nnyF0SAe8KExcpdTgd-155" target="61nnyF0SAe8KExcpdTgd-157">
          <mxGeometry relative="1" as="geometry" />
        </mxCell>
        <mxCell id="61nnyF0SAe8KExcpdTgd-155" value="Mencetak Struk&lt;div&gt;Pembayaran&lt;/div&gt;" style="rounded=0;whiteSpace=wrap;html=1;" vertex="1" parent="61nnyF0SAe8KExcpdTgd-121">
          <mxGeometry x="95.5" y="542" width="120" height="60" as="geometry" />
        </mxCell>
        <mxCell id="61nnyF0SAe8KExcpdTgd-157" value="Memberikan Wireless&lt;div&gt;Calling System&lt;/div&gt;" style="rounded=0;whiteSpace=wrap;html=1;" vertex="1" parent="61nnyF0SAe8KExcpdTgd-121">
          <mxGeometry x="95" y="652" width="120" height="60" as="geometry" />
        </mxCell>
        <mxCell id="61nnyF0SAe8KExcpdTgd-136" style="edgeStyle=orthogonalEdgeStyle;rounded=0;orthogonalLoop=1;jettySize=auto;html=1;entryX=1;entryY=0.5;entryDx=0;entryDy=0;" edge="1" parent="1" source="61nnyF0SAe8KExcpdTgd-132" target="61nnyF0SAe8KExcpdTgd-134">
          <mxGeometry relative="1" as="geometry" />
        </mxCell>
        <mxCell id="61nnyF0SAe8KExcpdTgd-142" style="edgeStyle=orthogonalEdgeStyle;rounded=0;orthogonalLoop=1;jettySize=auto;html=1;entryX=0;entryY=0.5;entryDx=0;entryDy=0;" edge="1" parent="1" source="61nnyF0SAe8KExcpdTgd-137" target="61nnyF0SAe8KExcpdTgd-141">
          <mxGeometry relative="1" as="geometry">
            <mxPoint x="800" y="2000" as="targetPoint" />
          </mxGeometry>
        </mxCell>
        <mxCell id="61nnyF0SAe8KExcpdTgd-143" value="Cash" style="edgeLabel;html=1;align=center;verticalAlign=middle;resizable=0;points=[];" vertex="1" connectable="0" parent="61nnyF0SAe8KExcpdTgd-142">
          <mxGeometry x="-0.7435" y="1" relative="1" as="geometry">
            <mxPoint as="offset" />
          </mxGeometry>
        </mxCell>
        <mxCell id="61nnyF0SAe8KExcpdTgd-145" style="edgeStyle=orthogonalEdgeStyle;rounded=0;orthogonalLoop=1;jettySize=auto;html=1;" edge="1" parent="1" source="61nnyF0SAe8KExcpdTgd-141" target="61nnyF0SAe8KExcpdTgd-144">
          <mxGeometry relative="1" as="geometry">
            <Array as="points">
              <mxPoint x="884" y="2030" />
            </Array>
          </mxGeometry>
        </mxCell>
        <mxCell id="61nnyF0SAe8KExcpdTgd-146" value="Uang pas" style="edgeLabel;html=1;align=center;verticalAlign=middle;resizable=0;points=[];" vertex="1" connectable="0" parent="61nnyF0SAe8KExcpdTgd-145">
          <mxGeometry x="-0.4108" y="1" relative="1" as="geometry">
            <mxPoint as="offset" />
          </mxGeometry>
        </mxCell>
        <mxCell id="61nnyF0SAe8KExcpdTgd-153" style="edgeStyle=orthogonalEdgeStyle;rounded=0;orthogonalLoop=1;jettySize=auto;html=1;entryX=0;entryY=0.5;entryDx=0;entryDy=0;" edge="1" parent="1" source="61nnyF0SAe8KExcpdTgd-137" target="61nnyF0SAe8KExcpdTgd-144">
          <mxGeometry relative="1" as="geometry">
            <Array as="points">
              <mxPoint x="309" y="2080" />
            </Array>
          </mxGeometry>
        </mxCell>
        <mxCell id="61nnyF0SAe8KExcpdTgd-154" value="Cashless" style="edgeLabel;html=1;align=center;verticalAlign=middle;resizable=0;points=[];" vertex="1" connectable="0" parent="61nnyF0SAe8KExcpdTgd-153">
          <mxGeometry x="-0.1157" relative="1" as="geometry">
            <mxPoint as="offset" />
          </mxGeometry>
        </mxCell>
        <mxCell id="61nnyF0SAe8KExcpdTgd-156" style="edgeStyle=orthogonalEdgeStyle;rounded=0;orthogonalLoop=1;jettySize=auto;html=1;entryX=0;entryY=0.5;entryDx=0;entryDy=0;" edge="1" parent="1" source="61nnyF0SAe8KExcpdTgd-151" target="61nnyF0SAe8KExcpdTgd-155">
          <mxGeometry relative="1" as="geometry" />
        </mxCell>
        <mxCell id="61nnyF0SAe8KExcpdTgd-160" style="edgeStyle=orthogonalEdgeStyle;rounded=0;orthogonalLoop=1;jettySize=auto;html=1;entryX=1;entryY=0.5;entryDx=0;entryDy=0;" edge="1" parent="1" source="61nnyF0SAe8KExcpdTgd-157" target="61nnyF0SAe8KExcpdTgd-159">
          <mxGeometry relative="1" as="geometry" />
        </mxCell>
      </root>
    </mxGraphModel>
  </diagram>
</mxfile>
